<?xml version="1.0" standalone="no"?><!DOCTYPE svg PUBLIC "-//W3C//DTD SVG 1.1//EN" "http://www.w3.org/Graphics/SVG/1.1/DTD/svg11.dtd"><svg t="1710272515909" class="icon" viewBox="0 0 1024 1024" version="1.1" xmlns="http://www.w3.org/2000/svg" p-id="7530" xmlns:xlink="http://www.w3.org/1999/xlink" width="200" height="200"><path d="M476.4 714.2c-8.1 0-16.1-3.1-22.2-9.4L250.3 498.2c-12.3-12.4-12.3-32.6 0-45.1s32.2-12.5 44.4 0l181.8 184.2L906.9 201a31.09 31.09 0 0 1 44.5 0c12.3 12.4 12.3 32.6 0 45.1L498.6 704.9c-6.1 6.2-14.2 9.3-22.2 9.3zM507 959.6c-59.6 0-117.5-11.8-171.9-35.1-52.6-22.6-99.8-54.8-140.3-95.9-40.5-41.1-72.4-89-94.6-142.3-23.2-55.4-34.9-114-34.9-174.4 0-60.4 11.7-119.1 34.7-174.3 22.3-53.3 54.2-101.2 94.7-142.3 40.5-41.1 87.7-73.4 140.3-95.9 54.5-23.3 112.4-35.2 172-35.2 87.9 0 172.8 26.2 245.6 75.6 12.6 8.5 16.1 26 7.6 38.8-8.4 12.8-25.7 16.3-38.3 7.6-63.6-43.1-138-66-214.9-66-213.2 0-386.4 175.8-386.4 391.7 0 215.9 173.3 391.7 386.4 391.7 213 0 386.4-175.7 386.4-391.7 0-13.9-0.7-27.8-2.2-41.7-1.7-15.4 9.4-29.1 24.6-30.8 15.2-1.7 28.7 9.5 30.3 24.9 1.7 15.7 2.5 31.8 2.5 47.6 0 60.4-11.7 119.1-34.7 174.3-22.3 53.4-54 101.1-94.6 142.3-40.5 41.1-87.8 73.4-140.4 95.9-54.5 23.2-112.3 35.2-171.9 35.2z m0 0" fill="#ffffff" p-id="7531"></path></svg>